<svg width="96" height="96" viewBox="0 0 96 96" fill="none" xmlns="http://www.w3.org/2000/svg">
  <rect width="96" height="96" rx="48" fill="#EEF9E9"/>
  <path d="M51 19C55.4 10.8 65.8 11.6 70 20C63.6 20.8 58 23.8 53.6 28.6L51 19Z" fill="#37A857"/>
  <path d="M44 21C61.1208 21 75 34.8792 75 52C75 69.1208 61.1208 83 44 83C26.8792 83 13 69.1208 13 52C13 34.8792 26.8792 21 44 21Z" fill="#B9E66A"/>
  <ellipse cx="34" cy="48" rx="3.5" ry="5.5" fill="#21301F"/>
  <ellipse cx="54" cy="48" rx="3.5" ry="5.5" fill="#21301F"/>
  <path d="M35 60C39.4 63.6 48.6 63.6 53 60" stroke="#21301F" stroke-width="4" stroke-linecap="round"/>
  <path d="M65 35C71.8 38.6 75.6 45.8 76 53" stroke="#7ABF5A" stroke-width="6" stroke-linecap="round"/>
</svg>
