<svg width="96" height="96" viewBox="0 0 96 96" fill="none" xmlns="http://www.w3.org/2000/svg">
  <rect width="96" height="96" rx="48" fill="#FFF4BF"/>
  <path d="M57 18C56.2 10.4 61.8 6.4 69 8C64.6 10.6 63.2 14.6 63 20.4L57 18Z" fill="#49A94D"/>
  <path d="M48 22C65.1208 22 79 35.8792 79 53C79 70.1208 65.1208 84 48 84C30.8792 84 17 70.1208 17 53C17 35.8792 30.8792 22 48 22Z" fill="#FFD95A"/>
  <ellipse cx="38" cy="48" rx="3.5" ry="5.5" fill="#222A24"/>
  <ellipse cx="58" cy="48" rx="3.5" ry="5.5" fill="#222A24"/>
  <path d="M39 61C43.8 66.3333 52.2 66.3333 57 61" stroke="#222A24" stroke-width="4" stroke-linecap="round"/>
  <circle cx="30" cy="58" r="4" fill="#FFC7A8" fill-opacity="0.9"/>
  <circle cx="66" cy="58" r="4" fill="#FFC7A8" fill-opacity="0.9"/>
</svg>
